<svg width="28" height="13" viewBox="0 0 28 13" fill="none" xmlns="http://www.w3.org/2000/svg">
<path d="M0.619707 12V1.36677H4.55187C5.82436 1.36677 6.79921 1.66441 7.47641 2.2597C8.15908 2.85498 8.50041 3.64414 8.50041 4.62718C8.50041 5.59384 8.15908 6.37481 7.47641 6.9701C6.79921 7.55992 5.82436 7.85483 4.55187 7.85483H2.55302V12H0.619707ZM6.37049 12L3.55244 7.01925H5.61683L8.89363 12H6.37049ZM2.55302 6.5605H4.35526C5.06523 6.5605 5.60317 6.39939 5.96908 6.07717C6.33499 5.74949 6.51795 5.32623 6.51795 4.80741C6.51795 4.27766 6.35138 3.85167 6.01824 3.52946C5.68509 3.20178 5.1963 3.03794 4.55187 3.03794H2.55302V6.5605ZM14.2931 12.2294C13.5667 12.2294 12.9086 12.0737 12.3188 11.7624C11.7344 11.4511 11.2702 10.9869 10.9261 10.3698C10.5821 9.74718 10.41 8.96894 10.41 8.03506C10.41 7.08478 10.5821 6.29835 10.9261 5.67576C11.2702 5.05317 11.7344 4.58895 12.3188 4.28312C12.9086 3.97729 13.5667 3.82437 14.2931 3.82437C15.0085 3.82437 15.6557 3.97729 16.2346 4.28312C16.8189 4.58895 17.2831 5.05317 17.6272 5.67576C17.9713 6.29835 18.1433 7.08478 18.1433 8.03506C18.1433 8.96894 17.9713 9.74718 17.6272 10.3698C17.2831 10.9869 16.8189 11.4511 16.2346 11.7624C15.6557 12.0737 15.0085 12.2294 14.2931 12.2294ZM14.2275 10.5418C14.6098 10.5418 14.9484 10.449 15.2433 10.2633C15.5437 10.0721 15.7785 9.79088 15.9478 9.4195C16.1226 9.04813 16.21 8.58665 16.21 8.03506C16.21 7.19401 16.0434 6.5605 15.7103 6.13451C15.3826 5.70853 14.932 5.49554 14.3586 5.49554C13.9708 5.49554 13.6268 5.59111 13.3264 5.78226C13.026 5.96794 12.7885 6.2492 12.6137 6.62603C12.4444 7.00286 12.3597 7.47254 12.3597 8.03506C12.3597 8.86518 12.5263 9.4905 12.8595 9.91102C13.1981 10.3315 13.6541 10.5418 14.2275 10.5418ZM20.4437 12V0.760559H22.377V12H20.4437ZM25.4357 12V0.760559H27.369V12H25.4357Z" fill="white"/>
</svg>
